<svg xmlns="http://www.w3.org/2000/svg" width="408" height="441" viewBox="0 0 408 441"><defs><linearGradient id="a" x1="50%" x2="50%" y1="0%" y2="100%"><stop offset="0%" stop-color="#FFF"/><stop offset="100%" stop-color="#EFF6FF"/></linearGradient><radialGradient id="b" cx="44.388%" cy="13.385%" r="187.712%" fx="44.388%" fy="13.385%" gradientTransform="matrix(.19288 .12062 -.02344 .9927 .361 -.053)"><stop offset="0%" stop-color="#66A5FF"/><stop offset="100%" stop-color="#CCE1FF" stop-opacity="0"/></radialGradient><linearGradient id="c" x1="100%" x2="0%" y1="100%" y2="0%"><stop offset="0%" stop-color="#E6F1FF"/><stop offset="100%" stop-color="#FFF"/></linearGradient><linearGradient id="d" x1="50%" x2="50%" y1="0%" y2="97.354%"><stop offset="0%" stop-color="#85B7FF"/><stop offset="100%" stop-color="#0663F5"/></linearGradient><radialGradient id="e" cy="0%" r="149.193%" fx="50%" fy="0%" gradientTransform="matrix(0 1 -.27922 0 .5 -.5)"><stop offset="0%" stop-color="#107" stop-opacity="0"/><stop offset="100%" stop-color="#107"/></radialGradient><linearGradient id="f" x1="50%" x2="50%" y1="30.847%" y2="100%"><stop offset="0%" stop-color="#0066FB"/><stop offset="100%" stop-color="#120078"/></linearGradient><linearGradient id="g" x1="50%" x2="50%" y1="60.733%" y2="0%"><stop offset="0%" stop-color="#0066FB"/><stop offset="100%" stop-color="#120078"/></linearGradient><linearGradient id="h" x1="50%" x2="50%" y1="0%" y2="100%"><stop offset="0%" stop-color="#0066FB"/><stop offset="100%" stop-color="#120078"/></linearGradient><linearGradient id="i" x1="17.822%" y1="9.646%" y2="94.052%"><stop offset="0%" stop-color="#0643CF"/><stop offset="100%" stop-color="#120078"/></linearGradient><linearGradient id="j" x1="57.883%" x2="96.788%" y1="26.598%" y2="99.334%"><stop offset="0%" stop-color="#E3EFFF"/><stop offset="100%" stop-color="#3C8CFF"/></linearGradient><linearGradient id="k" x1="10.266%" y1="9.436%" y2="89.815%"><stop offset="0%" stop-color="#85B7FF"/><stop offset="100%" stop-color="#0663F5"/></linearGradient><linearGradient id="l" x1="0%" y1="29.937%" y2="72.182%"><stop offset="0%" stop-color="#8BBBFF"/><stop offset="100%" stop-color="#0260F5"/></linearGradient></defs><g fill="none" fill-rule="evenodd" transform="translate(-31 -31)"><path fill="url(#a)" stroke="#CCE1FF" stroke-dasharray="1" stroke-linecap="round" stroke-linejoin="round" stroke-width="3" d="M240.16 447.06c100.571 0 182.1-81.529 182.1-182.1s-81.529-182.1-182.1-182.1-182.1 81.529-182.1 182.1 81.529 182.1 182.1 182.1z"/><path stroke="#CCE1FF" stroke-dasharray="0" stroke-linecap="round" stroke-width="3" d="M220 356.48c-25.54-6.19-48.47-22.92-61.18-45"/><path stroke="#CCE1FF" stroke-dasharray="2" stroke-linecap="round" stroke-width="3" d="M246 172c43.758 2.717 79.756 35.464 86.59 78.77"/><path stroke="#CCE1FF" stroke-dasharray="0" stroke-linecap="round" stroke-width="3" d="M365.88 245.59c.64 6.38 1 14.55 1 19.78 0 38-14.8 70.69-41.14 93.85"/><path stroke="#CCE1FF" stroke-linecap="round" stroke-width="3" d="M290.78 383a152.94 152.94 0 0 1-50.58 9.08c-69.963-.028-126.672-56.737-126.7-126.7a117.25 117.25 0 0 1 2.67-25.71 131 131 0 0 1 20.52-46.11"/><path stroke="#CCE1FF" stroke-width="3" d="M343.63 115c-67.744-46.83-158.464-42.467-221.4 10.65"/><path stroke="url(#b)" stroke-width="3" d="M215.493 89.402c-67.744-46.83-158.464-42.466-221.4 10.65" transform="rotate(-33 104.793 78.544)"/><circle cx="79" cy="70" r="8" fill="#79B0FF"/><path fill="#66A5FF" d="M361.34 221.15a2.88 2.88 0 1 1-2.88 2.88 2.7 2.7 0 0 1 2.88-2.88M226.09 169.47a2.88 2.88 0 1 1-2.88 2.88 2.81 2.81 0 0 1 2.88-2.88"/><g transform="translate(51 41)"><circle cx="320" cy="423" r="8" fill="#0069FF" fill-opacity=".1"/><circle cx="334" cy="394" r="6" fill="#0069FF" fill-opacity=".2"/><circle cx="316" cy="380" r="4" fill="#0069FF" fill-opacity=".1"/><circle cx="47" cy="419" r="4" fill="#0069FF" fill-opacity=".2"/><circle cx="29" cy="392" r="8" fill="#0069FF" fill-opacity=".1"/><circle cx="21" cy="112" r="4" fill="#0069FF" fill-opacity=".1"/><circle cx="38" cy="90" r="5" fill="#0069FF" fill-opacity=".2"/><circle cx="323" cy="23" r="5" fill="#0069FF" fill-opacity=".2"/><circle cx="312" cy="4" r="4" fill="#0069FF" fill-opacity=".1"/><circle cx="17" cy="72" r="4" fill="#0069FF" fill-opacity=".25"/><path stroke="#120078" stroke-dasharray="1" stroke-linecap="round" stroke-linejoin="round" stroke-opacity=".5" stroke-width="3" d="M152 386.047v-71.903M8 337.779v-40.127M263.948 266V147.322M335.5 314.144V289.49"/><circle cx="263.948" cy="277" r="8" fill="url(#c)"/><circle cx="263.948" cy="277" r="4" fill="#120078"/><circle cx="152" cy="404" r="8" fill="url(#c)"/><circle cx="152" cy="404" r="4" fill="#120078"/><circle cx="8" cy="357" r="8" fill="url(#c)"/><circle cx="8" cy="357" r="4" fill="#120078"/><circle cx="335" cy="332" r="8" fill="url(#c)"/><circle cx="335" cy="332" r="4" fill="#120078"/></g><path fill="url(#d)" d="M272.244 87.827l-.009-.004L315.227 64l43 23.827.008 52.346v.004L315.244 164l-43-23.827-.009-52.346z"/><path stroke="url(#e)" stroke-linecap="round" stroke-linejoin="round" stroke-width="3" d="M374.919 145.285l-60.09-33.55-60.064 33.537" opacity=".2"/><path stroke="url(#f)" stroke-linecap="round" stroke-linejoin="round" stroke-width="3" d="M374.919 79.588v65.69h-.012l.012.007-60.065 33.536-60.077-33.543h-.012v-65.69"/><path stroke="url(#g)" stroke-linecap="round" stroke-linejoin="round" stroke-width="3" d="M315.223 46l-59.988 33.493L315.247 113l59.988-33.493z"/><path stroke="url(#h)" stroke-linecap="square" stroke-linejoin="round" stroke-width="3" d="M315.235 114.987l.265 61.513"/><path fill="#107" d="M424.087 211.017a.657.657 0 0 0-.237-.102c-.13-.033-.264-.028-.315-.002l-.014.007c-.11.024-.225.07-.344.138l-26.744 15.46c-.73.421-1.323 1.555-1.323 2.53v9.308l-50.416 29.14c-1.478.854-2.679 3.15-2.679 5.124v64.362c0 1.974 1.2 2.882 2.679 2.027l77.127-44.58c1.479-.854 2.679-3.15 2.679-5.124v-75.263l.082.057c.158.079.732-.027.8-.061l2.092-1.155c.069-.034-.104-.235-.262-.314l-3.125-1.552z"/><path fill="url(#i)" d="M345.193 213.65c0-.976.593-1.425 1.323-1.003l26.753 15.486c.73.422 1.323 1.558 1.323 2.535v9.324l50.431 29.192c1.48.856 2.68 3.157 2.68 5.134v64.476c0 1.977-1.2 2.887-2.68 2.03l-77.15-44.658c-1.48-.856-2.68-3.157-2.68-5.133V213.65z" transform="matrix(-1 0 0 1 772.896 0)"/><path fill="url(#j)" d="M433.094 337.335l-74.116-42.903c-1.185-.685-2.41-2.68-2.737-4.452l-10.395-56.435-2.77-1.603c-.111-.064-.123-.163-.026-.22l2.687-1.555c.109-.063.243-.104.388-.124.27-.107.619-.057 1.026.179l78.064 45.187c1.184.686 2.41 2.68 2.737 4.453l10.644 57.79c.214 1.163-.012 1.942-.528 2.147l-2.51 1.453c-.335.194-.92.17-1.306-.054l-3.721-2.154c-.108-.062-.12-.156-.026-.21l2.583-1.496.006-.003z" transform="matrix(-1 0 0 1 781.66 0)"/><path fill="url(#k)" d="M428.264 281.41c-.326-1.772-1.552-3.767-2.736-4.453l-78.064-45.187c-1.185-.685-1.881.196-1.555 1.968l10.645 57.79c.326 1.772 1.552 3.767 2.736 4.453l78.064 45.187c1.185.686 1.881-.196 1.555-1.968l-10.645-57.79z" transform="matrix(-1 0 0 1 784.818 0)"/><path fill="url(#l)" d="M42 258.846c0-1.551.919-2.265 2.05-1.594l36.9 21.9c1.131.672 2.05 2.477 2.05 4.027v55.975c0 1.551-.919 2.265-2.05 1.593l-36.9-21.9c-1.131-.671-2.05-2.475-2.05-4.026v-55.975z"/><path fill="#FFF" d="M54 279.257c0-.216.128-.315.287-.222l8.426 4.976c.159.094.287.345.287.56v1.172c0 .216-.128.315-.287.222l-8.426-4.976c-.159-.094-.287-.345-.287-.56v-1.172zM54 273.258c0-.217.128-.317.286-.223l23.428 13.963c.158.094.286.347.286.564v1.18c0 .217-.128.317-.286.223l-23.428-13.963c-.158-.094-.286-.347-.286-.564v-1.18zM48 272.247c1.104.658 2 2.426 2 3.945 0 1.52-.896 2.218-2 1.56-1.104-.657-2-2.425-2-3.944 0-1.52.896-2.218 2-1.56z"/><path fill="#FFF" d="M48 273.122c.552.327 1 1.21 1 1.97 0 .761-.448 1.113-1 .786-.552-.327-1-1.21-1-1.97 0-.761.448-1.113 1-.786zM54 297.257c0-.216.128-.315.287-.222l8.426 4.976c.159.094.287.345.287.56v1.172c0 .216-.128.315-.287.222l-8.426-4.976c-.159-.094-.287-.345-.287-.56v-1.172zM54 291.258c0-.217.128-.317.286-.223l23.428 13.963c.158.094.286.347.286.564v1.18c0 .217-.128.317-.286.223l-23.428-13.963c-.158-.094-.286-.347-.286-.564v-1.18zM48 290.247c1.104.658 2 2.426 2 3.945 0 1.52-.896 2.218-2 1.56-1.104-.657-2-2.425-2-3.944 0-1.52.896-2.218 2-1.56z"/><path fill="#FFF" d="M48 291.122c.552.327 1 1.21 1 1.97 0 .761-.448 1.113-1 .786-.552-.327-1-1.21-1-1.97 0-.761.448-1.113 1-.786zM54 315.257c0-.216.128-.315.287-.222l8.426 4.976c.159.094.287.345.287.56v1.172c0 .216-.128.315-.287.222l-8.426-4.976c-.159-.094-.287-.345-.287-.56v-1.172zM54 309.258c0-.217.128-.317.286-.223l23.428 13.963c.158.094.286.347.286.564v1.18c0 .217-.128.317-.286.223l-23.428-13.963c-.158-.094-.286-.347-.286-.564v-1.18zM48 308.247c1.104.658 2 2.426 2 3.945 0 1.52-.896 2.218-2 1.56-1.104-.657-2-2.425-2-3.944 0-1.52.896-2.218 2-1.56z"/><path fill="#FFF" d="M48 309.122c.552.327 1 1.21 1 1.97 0 .761-.448 1.113-1 .786-.552-.327-1-1.21-1-1.97 0-.761.448-1.113 1-.786z"/><path fill="url(#l)" fill-opacity=".2" d="M295.768 232c0-5.039-3.069-10.902-6.848-13.084l-131.572-75.963c-3.78-2.182-6.848.138-6.848 5.177v119.123c0 5.04 3.069 10.902 6.848 13.084L288.92 356.3c3.779 2.182 6.848-.137 6.848-5.177V232z"/><path fill="url(#l)" fill-opacity=".4" d="M283.768 241c0-5.039-3.069-10.902-6.848-13.084l-131.572-75.963c-3.78-2.182-6.848.138-6.848 5.177v119.123c0 5.04 3.069 10.902 6.848 13.084L276.92 365.3c3.779 2.182 6.848-.137 6.848-5.177V241z"/><path fill="url(#l)" d="M269.768 249c0-5.039-3.069-10.902-6.848-13.084l-131.572-75.963c-3.78-2.182-6.848.138-6.848 5.177v119.123c0 5.04 3.069 10.902 6.848 13.084L262.92 373.3c3.779 2.182 6.848-.137 6.848-5.177V249z"/><path fill="#107" d="M158.997 313.3V193.118l-34.497-19.71v110.845c0 5.04 3.069 10.902 6.848 13.084l27.649 15.963z"/><path fill="#D5E6FF" d="M269.768 249c0-5.039-3.069-10.902-6.848-13.084l-131.572-75.963c-3.78-2.182-6.848.138-6.848 5.177v8.272l145.268 83.87V249z"/><path fill="#CCE1FF" d="M152.191 204.164c0-2.839-1.729-6.142-3.858-7.372l-13.87-8.007c-2.129-1.23-3.857.077-3.857 2.916s1.728 6.142 3.858 7.371l13.87 8.008c2.128 1.229 3.857-.078 3.857-2.916zM148.04 219.028c0-1.536-.935-3.324-2.087-3.989l-11.528-6.655c-1.152-.666-2.087.042-2.087 1.578s.935 3.323 2.088 3.988l11.527 6.656c1.152.665 2.088-.042 2.088-1.578z"/><path fill="#003FA3" d="M187.909 223.928c0-2.127-1.295-4.601-2.89-5.522l-12.453-7.19c-1.595-.921-2.89.058-2.89 2.185 0 2.127 1.295 4.601 2.89 5.522l12.453 7.19c1.595.92 2.89-.059 2.89-2.185z"/><path fill="#FFF" d="M179.489 237.184c0-1.536-.935-3.323-2.088-3.988l-4.87-2.812c-1.153-.666-2.088.042-2.088 1.578s.935 3.323 2.088 3.988l4.87 2.813c1.153.665 2.088-.042 2.088-1.579zM186.146 252.575c0-1.536-.935-3.324-2.088-3.989l-11.527-6.655c-1.153-.666-2.088.042-2.088 1.578s.935 3.323 2.088 3.988l11.527 6.656c1.153.665 2.088-.042 2.088-1.578zM183.178 262.409c0-1.537-.935-3.324-2.087-3.989l-8.56-4.942c-1.153-.666-2.088.042-2.088 1.578s.935 3.323 2.088 3.988l8.56 4.943c1.152.665 2.087-.042 2.087-1.578z"/><path fill="#003FA3" d="M213.89 238.928c0-2.127-1.295-4.601-2.89-5.522l-12.453-7.19c-1.595-.921-2.89.058-2.89 2.185 0 2.127 1.294 4.601 2.89 5.522l12.453 7.19c1.595.92 2.89-.059 2.89-2.185z"/><path fill="#FFF" d="M205.47 252.184c0-1.536-.936-3.323-2.088-3.988l-4.87-2.812c-1.153-.666-2.088.042-2.088 1.578s.935 3.323 2.087 3.988l4.871 2.813c1.152.665 2.088-.042 2.088-1.579zM212.127 267.575c0-1.536-.936-3.324-2.088-3.989l-11.528-6.655c-1.152-.666-2.087.042-2.087 1.578s.935 3.323 2.087 3.988l11.528 6.656c1.152.665 2.088-.042 2.088-1.578zM209.16 277.409c0-1.537-.936-3.324-2.088-3.989l-8.56-4.942c-1.153-.666-2.088.042-2.088 1.578s.935 3.323 2.087 3.988l8.56 4.943c1.153.665 2.088-.042 2.088-1.579z"/><path fill="#003FA3" d="M239.871 253.928c0-2.127-1.295-4.601-2.89-5.522l-12.454-7.19c-1.595-.921-2.89.058-2.89 2.185 0 2.127 1.295 4.601 2.89 5.522l12.454 7.19c1.595.92 2.89-.059 2.89-2.185z"/><path fill="#FFF" d="M231.45 267.184c0-1.536-.935-3.323-2.087-3.988l-4.87-2.812c-1.153-.666-2.088.042-2.088 1.578s.935 3.323 2.087 3.988l4.871 2.813c1.152.665 2.087-.042 2.087-1.579zM238.107 282.575c0-1.536-.935-3.324-2.087-3.989l-11.528-6.655c-1.152-.666-2.087.042-2.087 1.578s.935 3.323 2.087 3.988l11.528 6.656c1.152.665 2.087-.042 2.087-1.578zM235.14 292.409c0-1.537-.936-3.324-2.088-3.99l-8.56-4.941c-1.152-.666-2.087.041-2.087 1.578 0 1.536.935 3.323 2.087 3.989l8.56 4.942c1.152.665 2.088-.042 2.088-1.579z"/><path fill="#CCE1FF" d="M148.04 230.575c0-1.536-.935-3.324-2.087-3.989l-11.528-6.655c-1.152-.666-2.087.042-2.087 1.578s.935 3.323 2.088 3.988l11.527 6.656c1.152.665 2.088-.042 2.088-1.578zM148.04 242.122c0-1.536-.935-3.324-2.087-3.989l-11.528-6.655c-1.152-.666-2.087.042-2.087 1.578s.935 3.323 2.088 3.988l11.527 6.656c1.152.665 2.088-.042 2.088-1.578zM148.04 253.669c0-1.536-.935-3.324-2.087-3.989l-11.528-6.655c-1.152-.666-2.087.042-2.087 1.578s.935 3.323 2.088 3.988l11.527 6.656c1.152.665 2.088-.042 2.088-1.578z"/><path fill="#448CFA" d="M134.313 167.772c1.14.658 2.064 2.426 2.064 3.945 0 1.519-.925 2.219-2.064 1.561-1.14-.658-2.065-2.425-2.065-3.945 0-1.519.925-2.218 2.065-1.561z"/><path fill="#FFF" d="M142.973 172.772c1.14.658 2.065 2.426 2.065 3.945 0 1.519-.925 2.219-2.065 1.561-1.14-.658-2.064-2.425-2.064-3.945 0-1.519.925-2.218 2.064-1.561z"/><path fill="#448CFA" d="M142.973 172.772c1.14.658 2.065 2.426 2.065 3.945 0 1.519-.925 2.219-2.065 1.561-1.14-.658-2.064-2.425-2.064-3.945 0-1.519.925-2.218 2.064-1.561zM151.633 177.772c1.14.658 2.065 2.426 2.065 3.945 0 1.519-.925 2.219-2.065 1.561-1.14-.658-2.064-2.425-2.064-3.945 0-1.519.925-2.218 2.064-1.561z"/><path fill="url(#l)" fill-opacity=".3" d="M167.945 38.354l61.11 35.347c1.626.941 2.945 3.465 2.945 5.638v55.076c0 2.173-1.319 3.172-2.945 2.23l-61.11-35.346c-1.626-.941-2.945-3.465-2.945-5.638V40.585c0-2.173 1.319-3.171 2.945-2.231z"/><path fill="url(#l)" d="M157.945 43.354l61.11 35.347c1.626.941 2.945 3.465 2.945 5.638v55.076c0 2.173-1.319 3.172-2.945 2.23l-61.11-35.346c-1.626-.941-2.945-3.465-2.945-5.638V45.585c0-2.173 1.319-3.171 2.945-2.231z"/><path fill="#FFF" fill-rule="nonzero" d="M176.46 96.942c-.179-.101-.359-.31-.538-.626l-9.14-14.482a6.07 6.07 0 0 1-.593-1.14 3.06 3.06 0 0 1-.189-1.072v-.967c0-.376.058-.665.175-.868.117-.203.32-.371.607-.505l9.14-4.167c.197-.13.377-.15.539-.059.162.09.292.238.39.441.1.204.149.44.149.708v3.101c0 .35-.054.595-.162.735-.108.141-.278.267-.512.377l-6.525 2.857 6.525 10.193c.234.373.404.691.512.953.108.262.162.554.162.876v3.142c0 .242-.054.406-.162.493-.108.087-.233.09-.377.01zm9.062 10.956c-.14-.081-.261-.233-.365-.456a1.625 1.625 0 0 1-.157-.698c0-.161.017-.3.052-.414l8.87-27.865a.85.85 0 0 1 .313-.403c.139-.095.313-.08.521.041l1.696.989c.157.091.287.248.391.47.105.223.157.456.157.699 0 .161-.017.3-.052.414l-8.922 27.835a.782.782 0 0 1-.274.426c-.13.1-.309.083-.535-.049l-1.695-.989zm14.017 2.03c-.144-.08-.27-.224-.377-.433a1.445 1.445 0 0 1-.162-.674v-3.14c0-.322.054-.553.162-.694.108-.14.278-.266.512-.377l6.525-2.855-6.525-10.187a6.618 6.618 0 0 1-.512-.952A2.393 2.393 0 0 1 199 89.7v-3.1c0-.268.054-.445.162-.532.108-.087.233-.09.377-.01.162.091.342.313.54.666l9.14 14.433c.287.456.489.852.606 1.186a3.2 3.2 0 0 1 .175 1.064v.967c0 .375-.063.662-.189.86-.125.197-.323.354-.593.471l-9.14 4.205a.493.493 0 0 1-.539.019z"/></g></svg>
